<svg width="175" height="141" viewBox="0 0 175 141" fill="none" xmlns="http://www.w3.org/2000/svg">
<path d="M105.619 124.568C104.412 122.876 102.777 121.639 100.722 121.176C98.9299 120.772 97.087 120.841 95.2653 120.855L72.2309 121.033C70.258 121.048 68.3666 122.757 68.4583 124.805C68.5491 126.837 70.1161 128.594 72.2309 128.578C78.9784 128.526 85.7258 128.474 92.4733 128.422C94.0639 128.41 95.6557 128.381 97.2466 128.386C97.6038 128.387 97.9596 128.406 98.3163 128.41C98.4029 128.411 98.4654 128.41 98.5095 128.409C98.5205 128.412 98.5297 128.415 98.5441 128.419C98.7304 128.47 98.9214 128.505 99.1086 128.554C99.043 128.556 99.23 128.673 99.3241 128.712C99.3371 128.738 99.3644 128.783 99.4104 128.852C99.4745 128.973 99.6643 129.338 99.6721 129.326C99.9574 130.048 100.193 130.788 100.376 131.541C100.815 133.203 100.911 133.55 100.974 135.109C101.054 137.078 102.652 138.975 104.747 138.882C106.723 138.793 108.605 137.221 108.52 135.109C108.375 131.55 107.751 127.552 105.619 124.568Z" fill="#E6E6E6"/>
<path d="M73.5849 133.081C73.1523 130.459 72.7278 127.835 72.2869 125.215C71.8394 122.557 70.9253 120.122 68.8567 118.378C68.3038 117.912 67.7308 117.476 67.1553 117.042C66.9527 116.89 66.7509 116.737 66.5507 116.581C66.5389 116.572 66.5312 116.566 66.5208 116.558C66.4989 116.539 66.4725 116.517 66.4371 116.487C65.5748 115.757 64.7418 114.995 63.9481 114.185C63.2436 113.465 62.5695 112.715 61.9265 111.934C61.7657 111.739 61.607 111.542 61.4505 111.344C61.4236 111.31 61.2786 111.122 61.1828 111C61.0939 110.877 60.9315 110.656 60.9044 110.618C60.7214 110.359 60.5417 110.098 60.3651 109.834C59.1636 108.034 58.1233 106.131 57.2561 104.148C57.17 103.952 57.0861 103.754 57.004 103.555C56.9821 103.494 56.9536 103.416 56.9158 103.312C56.7411 102.832 56.5666 102.352 56.4068 101.865C56.0672 100.832 55.7756 99.7841 55.5313 98.7207C55.4103 98.1956 55.3016 97.6679 55.205 97.1376C55.1552 96.8648 55.1085 96.5913 55.0651 96.3176C55.0581 96.2721 55.0156 95.9766 54.9906 95.8095C54.9722 95.6418 54.9378 95.3447 54.9333 95.2987C54.9058 95.0226 54.8812 94.7463 54.8598 94.4697C54.8114 93.8472 54.7789 93.2236 54.7619 92.599C54.7329 91.4892 54.7527 90.3793 54.8216 89.2695C54.8607 88.6458 54.9164 88.0238 54.985 87.403C54.9892 87.365 54.9923 87.3346 54.9954 87.3073C54.9996 87.2794 55.0043 87.2481 55.0102 87.2089C55.0609 86.8659 55.1144 86.5233 55.1741 86.1816C55.4004 84.885 55.6947 83.6009 56.0557 82.3352C56.2266 81.7366 56.4124 81.1426 56.6128 80.5536C56.7022 80.2924 56.7944 80.0319 56.8894 79.7725C56.8833 79.7892 57.1681 79.0614 57.1719 79.0368C58.3025 76.3656 60.1518 73.9304 60.1543 70.8961C60.156 68.8415 58.4178 66.8736 56.3818 66.9684C55.3665 67.0066 54.4057 67.4376 53.7021 68.1702C52.9983 68.9028 52.6064 69.8801 52.6092 70.8961C52.6092 70.9421 52.609 70.9815 52.6087 71.0197C52.5899 71.0838 52.5738 71.1371 52.5597 71.1842C52.3392 71.6633 52.069 72.1186 51.8271 72.5857C51.1643 73.8646 50.5987 75.1853 50.0613 76.5255C49.1818 78.7077 48.5084 80.9677 48.0503 83.2756C47.0546 88.3322 46.9772 93.5271 47.822 98.6111C49.2849 107.527 54.1086 116.061 60.8145 121.798C61.3967 122.296 61.9928 122.777 62.5945 123.249C62.8435 123.444 63.0946 123.635 63.3471 123.825C63.4662 123.915 63.9604 124.305 63.743 124.116C64.2106 124.515 64.4072 124.716 64.5272 125.009C64.5447 125.077 64.5685 125.169 64.6006 125.295C64.6852 125.626 64.7656 125.957 64.8323 126.293C65.4159 129.229 65.8217 132.214 66.3093 135.169C66.6443 137.199 69.1439 138.52 70.95 137.912C73.0523 137.204 73.944 135.256 73.5849 133.081Z" fill="#E6E6E6"/>
<path d="M106.001 140.695C104.416 140.699 102.895 140.075 101.77 138.959C100.646 137.842 100.01 136.326 100.002 134.742V130.438C95.4968 130.942 80.0681 130.826 75.6458 130.115V134.569C75.6337 136.152 74.9966 137.667 73.8729 138.782C72.7494 139.897 71.2304 140.523 69.6471 140.523C68.0641 140.523 66.5451 139.897 65.4216 138.782C64.2979 137.667 63.6608 136.152 63.6488 134.569V125.824C57.6589 122.496 52.6654 117.63 49.1838 111.728C45.7019 105.827 43.8583 99.1028 43.8428 92.2506C43.8428 80.5014 49.1675 69.5409 58.4518 62.1799C64.4884 57.3777 71.8227 54.4896 79.5126 53.8866C80.5565 53.8048 81.6067 53.7633 82.6342 53.7633C86.2542 53.7633 102.586 54.3224 106.684 55.5013L116.028 46.23C116.165 46.0918 116.34 45.9977 116.531 45.9595C116.722 45.9216 116.92 45.9411 117.1 46.0161C117.281 46.0883 117.437 46.2135 117.546 46.3752C117.654 46.5372 117.712 46.7282 117.71 46.9232V48.3973L119.529 46.5952C119.666 46.457 119.841 46.3627 120.032 46.3245C120.223 46.2866 120.421 46.3061 120.601 46.3811C120.782 46.4533 120.938 46.5785 121.047 46.7405C121.156 46.9022 121.213 47.0934 121.211 47.2884V63.7616C125.9 67.9885 129.473 73.3064 131.615 79.2447C133.757 85.1827 134.4 91.5574 133.489 97.8038C132.578 104.05 130.14 109.976 126.392 115.054C122.643 120.133 117.7 124.209 111.999 126.921V134.742C111.991 136.326 111.355 137.842 110.231 138.959C109.106 140.075 107.585 140.699 106.001 140.695Z" fill="#FF3378"/>
<path d="M74.0354 28.0865L47.9245 35.9334C47.094 36.1838 46.3968 36.7539 45.9863 37.5181C45.5758 38.2823 45.4855 39.1783 45.7352 40.009C45.9849 40.8399 46.5541 41.5376 47.3178 41.9488C48.0815 42.3602 48.9775 42.4515 49.8084 42.2029L72.6584 35.3345L73.1371 35.1907C73.234 32.7239 73.9032 30.3137 75.0917 28.1501C74.9425 28.0829 74.7831 28.0414 74.6202 28.0275C74.4233 28.0084 74.2245 28.0285 74.0354 28.0865Z" fill="#FF3378"/>
<path d="M49.3568 43.8757C49.0102 43.8748 48.6725 43.7652 48.3917 43.5619C48.1109 43.3589 47.901 43.0727 47.7916 42.7437L46.1588 37.8168C46.0907 37.6109 46.0638 37.3938 46.0796 37.1775C46.0952 36.9613 46.1534 36.7503 46.2508 36.5567C46.3479 36.3629 46.4825 36.1903 46.6464 36.0486C46.8105 35.9069 47.0008 35.7989 47.2066 35.7308L68.4582 28.6878C68.664 28.6197 68.881 28.5926 69.0972 28.6084C69.3134 28.6239 69.5244 28.6822 69.718 28.7793C69.9118 28.8767 70.0844 29.0111 70.2261 29.1752C70.3678 29.3391 70.4758 29.5294 70.5442 29.7352L72.1768 34.6622C72.3128 35.0673 72.2855 35.5096 72.1008 35.8951C71.9165 36.2806 71.5889 36.5791 71.1881 36.7274C71.1685 36.7347 71.1487 36.7418 71.1287 36.7482L49.8776 43.7909C49.7097 43.847 49.5338 43.8755 49.3568 43.8757Z" fill="#2F2E41"/>
<path d="M89.1564 19.3362C84.8672 19.3378 80.7469 21.0084 77.6677 23.9942C74.5886 26.9802 72.7919 31.047 72.6584 35.3343C72.6537 35.5017 72.6514 35.6715 72.6514 35.8413C72.6514 39.1055 73.6193 42.2966 75.4329 45.0107C77.2466 47.7251 79.8242 49.8406 82.8402 51.0898C85.8561 52.339 89.1748 52.666 92.3763 52.0291C95.578 51.3923 98.519 49.8203 100.827 47.512C103.135 45.2036 104.707 42.2629 105.344 39.0612C105.981 35.8594 105.654 32.541 104.405 29.525C103.156 26.5091 101.04 23.9313 98.3261 22.1178C95.6117 20.3042 92.4208 19.3362 89.1564 19.3362Z" fill="#FFEA21"/>
<path d="M103.068 35.8413C103.068 39.5307 101.602 43.0691 98.9933 45.6781C96.3846 48.2871 92.8461 49.7527 89.1565 49.7527C85.4669 49.7527 81.9285 48.2871 79.3197 45.6781C76.7108 43.0691 75.2451 39.5307 75.2451 35.8413C75.2451 35.4004 75.2663 34.9666 75.3064 34.5374C75.6415 30.9766 77.3354 27.6817 80.0361 25.3369C82.7365 22.9921 86.2365 21.7775 89.8092 21.9453C93.3818 22.1131 96.7524 23.6503 99.2215 26.238C101.69 28.8255 103.068 32.2647 103.068 35.8413Z" fill="#F1E038"/>
<path d="M93.2987 36.7657C92.9615 36.3222 92.5178 35.9711 92.0089 35.7448C91.3813 35.4802 90.7331 35.2673 90.0708 35.1082V31.3215C91.0887 31.4749 92.0436 31.9102 92.8271 32.5782L93.5958 30.9395C93.1537 30.5455 92.646 30.2319 92.0962 30.0128C91.4864 29.766 90.8465 29.6016 90.1934 29.5248V27.6055H88.4132V29.5436C87.7259 29.6207 87.0626 29.8433 86.4679 30.1968C85.9308 30.5146 85.4783 30.9579 85.1499 31.4889C84.8363 32.0069 84.6736 32.6022 84.6807 33.2077C84.65 33.8639 84.84 34.5114 85.2206 35.0469C85.5707 35.5104 86.0334 35.8771 86.5646 36.1126C87.2022 36.385 87.8617 36.6033 88.5358 36.7657V40.3945C87.3344 40.3037 86.1897 39.847 85.256 39.0859L84.4873 40.7269C85.0093 41.1584 85.6033 41.4954 86.2416 41.722C86.9412 41.9721 87.6719 42.1244 88.4132 42.1747V44.0775H90.1934V42.1393C91.182 42.0311 92.1094 41.606 92.8366 40.9274C93.1568 40.6201 93.4098 40.2499 93.5793 39.8399C93.7491 39.4301 93.8316 38.9894 93.8222 38.5459C93.8516 37.9105 93.6675 37.2838 93.2987 36.7657ZM88.5358 34.7073C88.1022 34.5758 87.699 34.3593 87.3498 34.0707C87.2114 33.9474 87.102 33.7953 87.0293 33.6248C86.957 33.4544 86.923 33.2702 86.9301 33.0851C86.9171 32.6652 87.0715 32.2573 87.3592 31.951C87.678 31.6296 88.0894 31.416 88.5358 31.3403V34.7073ZM91.1884 39.7249C90.8875 40.0333 90.4959 40.2375 90.0708 40.3072V37.1854C90.477 37.2944 90.8574 37.4844 91.1884 37.7443C91.3138 37.8513 91.4136 37.9855 91.4801 38.1366C91.5468 38.2875 91.5784 38.4516 91.5727 38.6167C91.589 39.0213 91.4518 39.4172 91.1884 39.7249Z" fill="#12DB4A"/>
<path d="M50.114 63.8443C49.7494 63.8436 49.3953 63.7229 49.1067 63.5006C48.8178 63.2782 48.6104 62.9668 48.5165 62.6145L47.6276 59.2498C47.5163 58.8268 47.5774 58.3772 47.7974 57.9992C48.0171 57.6212 48.3781 57.3459 48.8006 57.2336L76.8453 49.8229C77.2685 49.7125 77.7181 49.7741 78.0959 49.9943C78.4738 50.2147 78.749 50.5757 78.8615 50.9983L79.6146 53.8489L79.4733 53.86C72.2809 54.419 65.399 57.0268 59.6421 61.3747L59.601 61.3945L50.5327 63.7899C50.3962 63.826 50.2554 63.8443 50.114 63.8443Z" fill="#2F2E41"/>
<path d="M45.4692 80.4638C42.1795 79.9779 39.0332 78.7881 36.2448 76.9761C34.8634 76.0789 33.5847 75.033 32.4312 73.8571C31.2929 72.6959 30.204 71.3762 29.6401 69.8299C29.0976 68.3994 29.1256 66.8149 29.7183 65.4044C30.3028 64.0024 31.4195 62.8895 32.8231 62.3095C34.2355 61.7464 35.9418 61.6861 37.3162 62.3029C37.9712 62.5901 38.5378 63.0463 38.9582 63.6247C39.1537 63.8914 39.2985 64.1918 39.3853 64.5108C39.4657 64.7999 39.473 65.1045 39.4065 65.3971C39.3258 65.6895 39.1837 65.9609 38.9896 66.1936C38.7956 66.4263 38.5539 66.6149 38.2808 66.7465C37.68 67.0549 37.0293 67.2532 36.3587 67.3329C35.6844 67.4249 34.7155 67.5086 34.1734 66.9672C34.0619 66.8599 33.974 66.7307 33.9157 66.5874C33.8749 66.4777 33.861 66.3598 33.8752 66.2436C33.8672 66.2947 33.908 66.132 33.9056 66.1386C33.8969 66.1627 33.8599 66.2212 33.9127 66.1313C33.9292 66.1016 33.9476 66.0731 33.9676 66.0458C33.9497 66.0689 33.9103 66.1075 33.9806 66.041C34.0386 65.9776 34.1133 65.9314 34.1961 65.908C34.2289 65.8986 34.2619 65.8911 34.2946 65.8821C34.3779 65.8592 34.2116 65.8833 34.2968 65.8805C34.3298 65.8795 34.3628 65.8802 34.3956 65.8788C34.479 65.875 34.3133 65.8562 34.3932 65.8762C34.4243 65.884 34.4552 65.8915 34.4856 65.9012C34.5521 65.9222 34.4387 65.8524 34.4837 65.9047C34.5366 65.9658 34.4281 65.8451 34.4882 65.9045C34.5182 65.9338 34.5462 65.9649 34.5726 65.9974C34.6766 66.1002 34.8171 66.1578 34.9633 66.1578C35.1098 66.1578 35.25 66.1002 35.3543 65.9974C35.4547 65.892 35.5108 65.7522 35.5108 65.6065C35.5108 65.461 35.4547 65.3209 35.3543 65.2158C34.8091 64.54 33.7328 64.707 33.1813 65.278C32.4781 66.0064 32.7566 67.1603 33.4406 67.7958C34.2149 68.5151 35.3113 68.5651 36.3073 68.4444C37.1491 68.3638 37.9694 68.132 38.7288 67.7602C39.4833 67.3895 40.0735 66.7519 40.385 65.971C40.5255 65.5544 40.576 65.1125 40.5331 64.6747C40.4901 64.237 40.3548 63.8133 40.1358 63.4318C39.2565 61.7787 37.4358 60.9313 35.636 60.7844C34.7094 60.7118 33.7776 60.8238 32.8945 61.1136C32.0115 61.4036 31.1948 61.8657 30.4914 62.4734C29.1359 63.6935 28.3012 65.3881 28.1599 67.2068C28.0028 69.0921 28.7343 70.923 29.8008 72.4445C30.9172 73.9906 32.2497 75.3683 33.757 76.5361C36.7044 78.889 40.1615 80.5195 43.8515 81.2969C44.2905 81.3876 44.7319 81.4652 45.1754 81.5298C45.3167 81.564 45.4655 81.543 45.5918 81.4714C45.7182 81.3997 45.8123 81.2825 45.8554 81.1436C45.8932 81.0024 45.8741 80.8519 45.8017 80.7246C45.7295 80.5973 45.61 80.5037 45.4692 80.4638Z" fill="#3F3D56"/>
<path d="M98.1408 56.4428C93.3209 56.3747 88.516 56.4971 83.7265 56.8097C82.0895 56.9165 80.6729 57.4954 80.6729 58.4678C80.6729 59.281 82.0781 60.2336 83.7265 60.1258C88.5137 59.8131 93.3185 59.691 98.1408 59.7589C102.072 59.8143 102.07 56.4983 98.1408 56.4428Z" fill="#EA8FCB"/>
<path d="M91.0172 59.5946C90.4963 59.5946 78.2598 59.5753 78.2598 57.885C78.2598 56.1949 90.4963 56.1755 91.0172 56.1755C91.538 56.1755 103.774 56.1949 103.774 57.885C103.774 59.5753 91.538 59.5946 91.0172 59.5946ZM78.7382 57.885C79.0732 58.3975 83.5711 59.123 91.0172 59.123C98.4633 59.123 102.961 58.3975 103.296 57.885C102.961 57.3726 98.4633 56.6471 91.0172 56.6471C83.5711 56.6471 79.0732 57.3726 78.7382 57.885Z" fill="#303129"/>
<path d="M129.84 104.029C132.548 103.954 135.92 103.86 138.517 101.962C139.29 101.374 139.926 100.624 140.379 99.7647C140.832 98.905 141.091 97.9569 141.139 96.9864C141.192 95.4882 140.651 94.1803 139.615 93.3048C138.258 92.1587 136.277 91.8899 134.143 92.5171L136.354 76.3544L134.731 76.1321L132.131 95.1334L133.486 94.5111C135.058 93.7901 137.216 93.4232 138.557 94.5564C138.886 94.8525 139.142 95.2208 139.306 95.6323C139.47 96.0437 139.537 96.4875 139.501 96.9289C139.461 97.6511 139.267 98.3563 138.93 98.9965C138.593 99.6366 138.123 100.197 137.55 100.639C135.529 102.115 132.842 102.306 129.794 102.391L129.84 104.029Z" fill="#FF3378"/>
<path d="M125.351 77.7483H116.525V79.387H125.351V77.7483Z" fill="#3F3D56"/>
<path d="M54.1081 71.3814C53.7153 71.3799 53.3357 71.2389 53.0374 70.9834C52.7391 70.7275 52.5416 70.3741 52.4803 69.986L51.9415 66.548C51.8743 66.1155 51.9813 65.6739 52.239 65.3205C52.4968 64.9668 52.8844 64.7298 53.3166 64.6617L81.9722 60.1718C82.4046 60.1044 82.846 60.2114 83.1994 60.4691C83.5531 60.7271 83.7901 61.1145 83.8582 61.5469L84.397 64.9852C84.4642 65.4174 84.3571 65.859 84.0994 66.2124C83.8417 66.5661 83.4541 66.8031 83.0219 66.8712L54.3663 71.3611C54.281 71.3745 54.1947 71.3811 54.1081 71.3814Z" fill="#2F2E41"/>
<path d="M42.2487 31.0896C48.8901 31.0896 54.2738 25.7056 54.2738 19.0644C54.2738 12.4231 48.8901 7.03931 42.2487 7.03931C35.6076 7.03931 30.2236 12.4231 30.2236 19.0644C30.2236 25.7056 35.6076 31.0896 42.2487 31.0896Z" fill="#FF3378"/>
<path d="M49.0578 22.1758C49.4422 22.0414 49.7933 21.8263 50.0875 21.5449C50.2823 21.3442 50.4306 21.1034 50.5226 20.8394C50.6143 20.5753 50.6473 20.2944 50.6192 20.0163C50.603 19.818 50.5409 19.6262 50.4381 19.4559C50.3353 19.2856 50.1946 19.1413 50.0269 19.0344C49.5917 18.7668 49.0166 18.7769 48.4361 19.0461L48.3691 14.3521L47.8975 14.3588L47.9763 19.8771L48.3352 19.6416C48.7516 19.3691 49.3495 19.1715 49.7798 19.4361C49.8862 19.5062 49.9751 19.5999 50.0394 19.7098C50.1038 19.8198 50.1418 19.9432 50.1507 20.0703C50.1705 20.2775 50.1455 20.4865 50.0774 20.6832C50.009 20.8799 49.8994 21.0595 49.7555 21.21C49.2444 21.7172 48.4877 21.8871 47.624 22.0426L47.7077 22.5066C48.1668 22.4369 48.6186 22.3262 49.0578 22.1758Z" fill="#2F2E41"/>
<path d="M53.224 14.0225L50.7129 14.4028L50.7834 14.8689L53.2947 14.4887L53.224 14.0225Z" fill="#2F2E41"/>
<path d="M45.2982 15.2227L42.7871 15.6029L42.8576 16.0691L45.3687 15.6888L45.2982 15.2227Z" fill="#2F2E41"/>
<path d="M50.196 71.1712C49.7636 71.1702 49.3418 71.0377 48.9865 70.7911C48.6311 70.5445 48.3595 70.1955 48.2074 69.7907L39.9165 47.5869C38.9031 44.8638 39.0113 41.8498 40.2173 39.2064C41.4234 36.563 43.6287 34.5057 46.3497 33.4864L53.0913 30.9692C53.3518 30.8711 53.6293 30.8256 53.9078 30.8353C54.186 30.8449 54.4598 30.9095 54.713 31.0253C54.9655 31.1382 55.1933 31.3005 55.3824 31.5023C55.5717 31.7041 55.7189 31.9416 55.8153 32.2009L71.1737 61.1989C71.2732 61.4603 71.3204 61.739 71.3119 62.0187C71.3036 62.2986 71.24 62.5737 71.1247 62.8288C71.0096 63.0837 70.845 63.3136 70.6408 63.5048C70.4364 63.6961 70.1964 63.8448 69.9342 63.9429L50.9378 71.0363C50.7006 71.1254 50.4495 71.171 50.196 71.1712Z" fill="#2F2E41"/>
<path d="M51.0459 31.7326L66.2845 52.1105L55.9731 31.9465C55.888 31.7112 55.7574 31.495 55.5885 31.3101C55.4199 31.1255 55.2165 30.9758 54.9899 30.8697C54.7633 30.7636 54.5181 30.7032 54.2679 30.6919C54.018 30.6806 53.7683 30.7185 53.533 30.8039L51.0459 31.7326Z" fill="#E6E6E6"/>
<path d="M75.1741 47.2085L47.9656 45.4557C47.5367 45.4281 47.1175 45.3164 46.7318 45.1268C46.346 44.937 46.0015 44.6734 45.7179 44.3506C45.4342 44.0278 45.2168 43.6522 45.0782 43.2455C44.9395 42.8387 44.8825 42.4084 44.9101 41.9798C44.9377 41.5509 45.0494 41.1317 45.2392 40.7459C45.4288 40.3602 45.6927 40.0157 46.0154 39.732C46.3382 39.4484 46.7136 39.231 47.1206 39.0924C47.5273 38.9537 47.9574 38.8966 48.3863 38.9242L75.5948 40.6766C75.7956 40.6896 75.9921 40.7419 76.1727 40.8308C76.3533 40.9197 76.5146 41.043 76.6475 41.1944C76.7803 41.3455 76.8821 41.5212 76.947 41.7117C77.0118 41.9022 77.0387 42.1038 77.0257 42.3047L76.802 45.7776C76.776 46.1831 76.5898 46.5618 76.2844 46.8301C75.9791 47.0984 75.5797 47.2345 75.1741 47.2085Z" fill="#FF3378"/>
<path d="M67.9039 48.3322C67.868 48.3322 67.8319 48.331 67.7959 48.3286L45.4537 46.8896C45.2372 46.8757 45.026 46.8194 44.8314 46.7236C44.6369 46.6279 44.4631 46.4949 44.32 46.3322C44.1769 46.1693 44.0673 45.98 43.9975 45.7748C43.9274 45.5697 43.8987 45.3528 43.9126 45.1366L44.2946 39.2044C44.3085 38.9882 44.3651 38.7767 44.4606 38.5822C44.5563 38.3877 44.6893 38.2141 44.8522 38.071C45.0149 37.9279 45.2045 37.8182 45.4096 37.7482C45.6147 37.6784 45.8317 37.6497 46.0479 37.6636L68.39 39.1026C68.8267 39.1313 69.2342 39.3318 69.523 39.6604C69.8121 39.9891 69.9587 40.419 69.9311 40.8556L69.5492 46.7878C69.528 47.1056 69.4157 47.4107 69.2257 47.6663C69.0354 47.9219 68.7756 48.1171 68.4771 48.2287C68.2938 48.2973 68.0996 48.3322 67.9039 48.3322Z" fill="#2F2E41"/>
<path d="M42.1114 11.0679C43.6932 9.70735 45.8655 10.9245 47.6799 10.7114C49.4155 10.5075 50.7859 8.95065 51.1361 7.29666C51.5444 5.36698 50.5431 3.43373 49.0668 2.23061C47.4498 0.912906 45.3053 0.534623 43.2733 0.778409C40.9442 1.05782 38.8144 2.14346 36.9031 3.4566C35.0583 4.68483 33.3618 6.12239 31.8474 7.74064C30.4914 9.23826 29.3425 11.0234 28.9757 13.0387C28.6423 14.8701 28.8968 16.8997 29.9795 18.4512C30.5536 19.2464 31.323 19.8802 32.2133 20.2915C33.1418 20.7474 34.1321 21.0733 35.0317 21.5888C36.3914 22.3681 37.7132 23.9841 37.2872 25.6658C37.1959 26.0331 37.0158 26.3724 36.7623 26.6537C36.4582 26.9916 35.9092 26.545 36.2144 26.2064C36.7503 25.6115 36.7291 24.8181 36.4435 24.1079C36.1038 23.3075 35.5025 22.6462 34.7379 22.2323C33.7964 21.694 32.757 21.3618 31.792 20.8715C30.8684 20.4236 30.0667 19.7592 29.455 18.9348C28.3001 17.3298 27.9547 15.241 28.2166 13.3087C28.5 11.2176 29.5744 9.31748 30.9212 7.72515C32.3868 5.99226 34.1873 4.52542 36.0264 3.20766C38.0002 1.79367 40.1805 0.598257 42.5933 0.165894C44.6847 -0.208897 46.9516 0.0218481 48.7806 1.1616C50.4877 2.22549 51.7967 4.05559 51.9269 6.10054C51.9738 7.03099 51.7717 7.95709 51.3417 8.78352C50.9116 9.60997 50.2691 10.3069 49.4804 10.8026C48.6709 11.287 47.7299 11.5049 46.7901 11.4259C45.7851 11.3615 44.7795 11.0538 43.7682 11.1393C43.3106 11.167 42.8746 11.3432 42.5261 11.6411C42.1804 11.9384 41.7685 11.3627 42.1114 11.0679Z" fill="#2F2E41"/>
<path d="M105.619 124.568C104.412 122.876 102.777 121.639 100.722 121.176C98.9299 120.772 97.087 120.841 95.2653 120.855L72.2309 121.033C70.258 121.048 68.3666 122.757 68.4583 124.805C68.5491 126.837 70.1161 128.594 72.2309 128.578C78.9784 128.526 85.7258 128.474 92.4733 128.422C94.0639 128.41 95.6557 128.381 97.2466 128.386C97.6038 128.387 97.9596 128.406 98.3163 128.41C98.4029 128.411 98.4654 128.41 98.5095 128.409C98.5205 128.412 98.5297 128.415 98.5441 128.419C98.7304 128.47 98.9214 128.505 99.1086 128.554C99.043 128.556 99.23 128.673 99.3241 128.712C99.3371 128.738 99.3644 128.783 99.4104 128.852C99.4745 128.973 99.6643 129.338 99.6721 129.326C99.9574 130.048 100.193 130.788 100.376 131.541C100.815 133.203 100.911 133.55 100.974 135.109C101.054 137.078 102.652 138.975 104.747 138.882C106.723 138.793 108.605 137.221 108.52 135.109C108.375 131.55 107.751 127.552 105.619 124.568Z" fill="#E6E6E6"/>
<path d="M73.5849 133.081C73.1523 130.459 72.7278 127.835 72.2869 125.215C71.8394 122.557 70.9253 120.122 68.8567 118.378C68.3038 117.912 67.7308 117.476 67.1553 117.042C66.9527 116.89 66.7509 116.737 66.5507 116.581C66.5389 116.572 66.5312 116.566 66.5208 116.558C66.4989 116.539 66.4725 116.517 66.4371 116.487C65.5748 115.757 64.7418 114.995 63.9481 114.185C63.2436 113.465 62.5695 112.715 61.9265 111.934C61.7657 111.739 61.607 111.542 61.4505 111.344C61.4236 111.31 61.2786 111.122 61.1828 111C61.0939 110.877 60.9315 110.656 60.9044 110.618C60.7214 110.359 60.5417 110.098 60.3651 109.834C59.1636 108.034 58.1233 106.131 57.2561 104.148C57.17 103.952 57.0861 103.754 57.004 103.555C56.9821 103.494 56.9536 103.416 56.9158 103.312C56.7411 102.832 56.5666 102.352 56.4068 101.865C56.0672 100.832 55.7756 99.7841 55.5313 98.7207C55.4103 98.1956 55.3016 97.6679 55.205 97.1376C55.1552 96.8648 55.1085 96.5913 55.0651 96.3176C55.0581 96.2721 55.0156 95.9766 54.9906 95.8095C54.9722 95.6418 54.9378 95.3447 54.9333 95.2987C54.9058 95.0226 54.8812 94.7463 54.8598 94.4697C54.8114 93.8472 54.7789 93.2236 54.7619 92.599C54.7329 91.4892 54.7527 90.3793 54.8216 89.2695C54.8607 88.6458 54.9164 88.0238 54.985 87.403C54.9892 87.365 54.9923 87.3346 54.9954 87.3073C54.9996 87.2794 55.0043 87.2481 55.0102 87.2089C55.0609 86.8659 55.1144 86.5233 55.1741 86.1816C55.4004 84.885 55.6947 83.6009 56.0557 82.3352C56.2266 81.7366 56.4124 81.1426 56.6128 80.5536C56.7022 80.2924 56.7944 80.0319 56.8894 79.7725C56.8833 79.7892 57.1681 79.0614 57.1719 79.0368C58.3025 76.3656 60.1518 73.9304 60.1543 70.8961C60.156 68.8415 58.4178 66.8736 56.3818 66.9684C55.3665 67.0066 54.4057 67.4376 53.7021 68.1702C52.9983 68.9028 52.6064 69.8801 52.6092 70.8961C52.6092 70.9421 52.609 70.9815 52.6087 71.0197C52.5899 71.0838 52.5738 71.1371 52.5597 71.1842C52.3392 71.6633 52.069 72.1186 51.8271 72.5857C51.1643 73.8646 50.5987 75.1853 50.0613 76.5255C49.1818 78.7077 48.5084 80.9677 48.0503 83.2756C47.0546 88.3322 46.9772 93.5271 47.822 98.6111C49.2849 107.527 54.1086 116.061 60.8145 121.798C61.3967 122.296 61.9928 122.777 62.5945 123.249C62.8435 123.444 63.0946 123.635 63.3471 123.825C63.4662 123.915 63.9604 124.305 63.743 124.116C64.2106 124.515 64.4072 124.716 64.5272 125.009C64.5447 125.077 64.5685 125.169 64.6006 125.295C64.6852 125.626 64.7656 125.957 64.8323 126.293C65.4159 129.229 65.8217 132.214 66.3093 135.169C66.6443 137.199 69.1439 138.52 70.95 137.912C73.0523 137.204 73.944 135.256 73.5849 133.081Z" fill="#E6E6E6"/>
<path d="M106.001 140.695C104.416 140.699 102.895 140.075 101.77 138.959C100.646 137.842 100.01 136.326 100.002 134.742V130.438C95.4968 130.942 80.0681 130.826 75.6458 130.115V134.569C75.6337 136.152 74.9966 137.667 73.8729 138.782C72.7494 139.897 71.2304 140.523 69.6471 140.523C68.0641 140.523 66.5451 139.897 65.4216 138.782C64.2979 137.667 63.6608 136.152 63.6488 134.569V125.824C57.6589 122.496 52.6654 117.63 49.1838 111.728C45.7019 105.827 43.8583 99.1028 43.8428 92.2506C43.8428 80.5014 49.1675 69.5409 58.4518 62.1799C64.4884 57.3777 71.8227 54.4896 79.5126 53.8866C80.5565 53.8048 81.6067 53.7633 82.6342 53.7633C86.2542 53.7633 102.586 54.3224 106.684 55.5013L116.028 46.23C116.165 46.0918 116.34 45.9977 116.531 45.9595C116.722 45.9216 116.92 45.9411 117.1 46.0161C117.281 46.0883 117.437 46.2135 117.546 46.3752C117.654 46.5372 117.712 46.7282 117.71 46.9232V48.3973L119.529 46.5952C119.666 46.457 119.841 46.3627 120.032 46.3245C120.223 46.2866 120.421 46.3061 120.601 46.3811C120.782 46.4533 120.938 46.5785 121.047 46.7405C121.156 46.9022 121.213 47.0934 121.211 47.2884V63.7616C125.9 67.9885 129.473 73.3064 131.615 79.2447C133.757 85.1827 134.4 91.5574 133.489 97.8038C132.578 104.05 130.14 109.976 126.392 115.054C122.643 120.133 117.7 124.209 111.999 126.921V134.742C111.991 136.326 111.355 137.842 110.231 138.959C109.106 140.075 107.585 140.699 106.001 140.695Z" fill="#FF3378"/>
<path d="M74.0354 28.0865L47.9245 35.9334C47.094 36.1838 46.3968 36.7539 45.9863 37.5181C45.5758 38.2823 45.4855 39.1783 45.7352 40.009C45.9849 40.8399 46.5541 41.5376 47.3178 41.9488C48.0815 42.3602 48.9775 42.4515 49.8084 42.2029L72.6584 35.3345L73.1371 35.1907C73.234 32.7239 73.9032 30.3137 75.0917 28.1501C74.9425 28.0829 74.7831 28.0414 74.6202 28.0275C74.4233 28.0084 74.2245 28.0285 74.0354 28.0865Z" fill="#FF3378"/>
<path d="M49.3568 43.8757C49.0102 43.8748 48.6725 43.7652 48.3917 43.5619C48.1109 43.3589 47.901 43.0727 47.7916 42.7437L46.1588 37.8168C46.0907 37.6109 46.0638 37.3938 46.0796 37.1775C46.0952 36.9613 46.1534 36.7503 46.2508 36.5567C46.3479 36.3629 46.4825 36.1903 46.6464 36.0486C46.8105 35.9069 47.0008 35.7989 47.2066 35.7308L68.4582 28.6878C68.664 28.6197 68.881 28.5926 69.0972 28.6084C69.3134 28.6239 69.5244 28.6822 69.718 28.7793C69.9118 28.8767 70.0844 29.0111 70.2261 29.1752C70.3678 29.3391 70.4758 29.5294 70.5442 29.7352L72.1768 34.6622C72.3128 35.0673 72.2855 35.5096 72.1008 35.8951C71.9165 36.2806 71.5889 36.5791 71.1881 36.7274C71.1685 36.7347 71.1487 36.7418 71.1287 36.7482L49.8776 43.7909C49.7097 43.847 49.5338 43.8755 49.3568 43.8757Z" fill="#2F2E41"/>
<path d="M89.1564 19.3362C84.8672 19.3378 80.7469 21.0084 77.6677 23.9942C74.5886 26.9802 72.7919 31.047 72.6584 35.3343C72.6537 35.5017 72.6514 35.6715 72.6514 35.8413C72.6514 39.1055 73.6193 42.2966 75.4329 45.0107C77.2466 47.7251 79.8242 49.8406 82.8402 51.0898C85.8561 52.339 89.1748 52.666 92.3763 52.0291C95.578 51.3923 98.519 49.8203 100.827 47.512C103.135 45.2036 104.707 42.2629 105.344 39.0612C105.981 35.8594 105.654 32.541 104.405 29.525C103.156 26.5091 101.04 23.9313 98.3261 22.1178C95.6117 20.3042 92.4208 19.3362 89.1564 19.3362Z" fill="#FFEA21"/>
<path d="M103.068 35.8413C103.068 39.5307 101.602 43.0691 98.9933 45.6781C96.3846 48.2871 92.8461 49.7527 89.1565 49.7527C85.4669 49.7527 81.9285 48.2871 79.3197 45.6781C76.7108 43.0691 75.2451 39.5307 75.2451 35.8413C75.2451 35.4004 75.2663 34.9666 75.3064 34.5374C75.6415 30.9766 77.3354 27.6817 80.0361 25.3369C82.7365 22.9921 86.2365 21.7775 89.8092 21.9453C93.3818 22.1131 96.7524 23.6503 99.2215 26.238C101.69 28.8255 103.068 32.2647 103.068 35.8413Z" fill="#F1E038"/>
<path d="M93.2987 36.7657C92.9615 36.3222 92.5178 35.9711 92.0089 35.7448C91.3813 35.4802 90.7331 35.2673 90.0708 35.1082V31.3215C91.0887 31.4749 92.0436 31.9102 92.8271 32.5782L93.5958 30.9395C93.1537 30.5455 92.646 30.2319 92.0962 30.0128C91.4864 29.766 90.8465 29.6016 90.1934 29.5248V27.6055H88.4132V29.5436C87.7259 29.6207 87.0626 29.8433 86.4679 30.1968C85.9308 30.5146 85.4783 30.9579 85.1499 31.4889C84.8363 32.0069 84.6736 32.6022 84.6807 33.2077C84.65 33.8639 84.84 34.5114 85.2206 35.0469C85.5707 35.5104 86.0334 35.8771 86.5646 36.1126C87.2022 36.385 87.8617 36.6033 88.5358 36.7657V40.3945C87.3344 40.3037 86.1897 39.847 85.256 39.0859L84.4873 40.7269C85.0093 41.1584 85.6033 41.4954 86.2416 41.722C86.9412 41.9721 87.6719 42.1244 88.4132 42.1747V44.0775H90.1934V42.1393C91.182 42.0311 92.1094 41.606 92.8366 40.9274C93.1568 40.6201 93.4098 40.2499 93.5793 39.8399C93.7491 39.4301 93.8316 38.9894 93.8222 38.5459C93.8516 37.9105 93.6675 37.2838 93.2987 36.7657ZM88.5358 34.7073C88.1022 34.5758 87.699 34.3593 87.3498 34.0707C87.2114 33.9474 87.102 33.7953 87.0293 33.6248C86.957 33.4544 86.923 33.2702 86.9301 33.0851C86.9171 32.6652 87.0715 32.2573 87.3592 31.951C87.678 31.6296 88.0894 31.416 88.5358 31.3403V34.7073ZM91.1884 39.7249C90.8875 40.0333 90.4959 40.2375 90.0708 40.3072V37.1854C90.477 37.2944 90.8574 37.4844 91.1884 37.7443C91.3138 37.8513 91.4136 37.9855 91.4801 38.1366C91.5468 38.2875 91.5784 38.4516 91.5727 38.6167C91.589 39.0213 91.4518 39.4172 91.1884 39.7249Z" fill="#12DB4A"/>
<path d="M50.114 63.8443C49.7494 63.8436 49.3953 63.7229 49.1067 63.5006C48.8178 63.2782 48.6104 62.9668 48.5165 62.6145L47.6276 59.2498C47.5163 58.8268 47.5774 58.3772 47.7974 57.9992C48.0171 57.6212 48.3781 57.3459 48.8006 57.2336L76.8453 49.8229C77.2685 49.7125 77.7181 49.7741 78.0959 49.9943C78.4738 50.2147 78.749 50.5757 78.8615 50.9983L79.6146 53.8489L79.4733 53.86C72.2809 54.419 65.399 57.0268 59.6421 61.3747L59.601 61.3945L50.5327 63.7899C50.3962 63.826 50.2554 63.8443 50.114 63.8443Z" fill="#2F2E41"/>
<path d="M45.4692 80.4638C42.1795 79.9779 39.0332 78.7881 36.2448 76.9761C34.8634 76.0789 33.5847 75.033 32.4312 73.8571C31.2929 72.6959 30.204 71.3762 29.6401 69.8299C29.0976 68.3994 29.1256 66.8149 29.7183 65.4044C30.3028 64.0024 31.4195 62.8895 32.8231 62.3095C34.2355 61.7464 35.9418 61.6861 37.3162 62.3029C37.9712 62.5901 38.5378 63.0463 38.9582 63.6247C39.1537 63.8914 39.2985 64.1918 39.3853 64.5108C39.4657 64.7999 39.473 65.1045 39.4065 65.3971C39.3258 65.6895 39.1837 65.9609 38.9896 66.1936C38.7956 66.4263 38.5539 66.6149 38.2808 66.7465C37.68 67.0549 37.0293 67.2532 36.3587 67.3329C35.6844 67.4249 34.7155 67.5086 34.1734 66.9672C34.0619 66.8599 33.974 66.7307 33.9157 66.5874C33.8749 66.4777 33.861 66.3598 33.8752 66.2436C33.8672 66.2947 33.908 66.132 33.9056 66.1386C33.8969 66.1627 33.8599 66.2212 33.9127 66.1313C33.9292 66.1016 33.9476 66.0731 33.9676 66.0458C33.9497 66.0689 33.9103 66.1075 33.9806 66.041C34.0386 65.9776 34.1133 65.9314 34.1961 65.908C34.2289 65.8986 34.2619 65.8911 34.2946 65.8821C34.3779 65.8592 34.2116 65.8833 34.2968 65.8805C34.3298 65.8795 34.3628 65.8802 34.3956 65.8788C34.479 65.875 34.3133 65.8562 34.3932 65.8762C34.4243 65.884 34.4552 65.8915 34.4856 65.9012C34.5521 65.9222 34.4387 65.8524 34.4837 65.9047C34.5366 65.9658 34.4281 65.8451 34.4882 65.9045C34.5182 65.9338 34.5462 65.9649 34.5726 65.9974C34.6766 66.1002 34.8171 66.1578 34.9633 66.1578C35.1098 66.1578 35.25 66.1002 35.3543 65.9974C35.4547 65.892 35.5108 65.7522 35.5108 65.6065C35.5108 65.461 35.4547 65.3209 35.3543 65.2158C34.8091 64.54 33.7328 64.707 33.1813 65.278C32.4781 66.0064 32.7566 67.1603 33.4406 67.7958C34.2149 68.5151 35.3113 68.5651 36.3073 68.4444C37.1491 68.3638 37.9694 68.132 38.7288 67.7602C39.4833 67.3895 40.0735 66.7519 40.385 65.971C40.5255 65.5544 40.576 65.1125 40.5331 64.6747C40.4901 64.237 40.3548 63.8133 40.1358 63.4318C39.2565 61.7787 37.4358 60.9313 35.636 60.7844C34.7094 60.7118 33.7776 60.8238 32.8945 61.1136C32.0115 61.4036 31.1948 61.8657 30.4914 62.4734C29.1359 63.6935 28.3012 65.3881 28.1599 67.2068C28.0028 69.0921 28.7343 70.923 29.8008 72.4445C30.9172 73.9906 32.2497 75.3683 33.757 76.5361C36.7044 78.889 40.1615 80.5195 43.8515 81.2969C44.2905 81.3876 44.7319 81.4652 45.1754 81.5298C45.3167 81.564 45.4655 81.543 45.5918 81.4714C45.7182 81.3997 45.8123 81.2825 45.8554 81.1436C45.8932 81.0024 45.8741 80.8519 45.8017 80.7246C45.7295 80.5973 45.61 80.5037 45.4692 80.4638Z" fill="#3F3D56"/>
<path d="M98.1408 56.4428C93.3209 56.3747 88.516 56.4971 83.7265 56.8097C82.0895 56.9165 80.6729 57.4954 80.6729 58.4678C80.6729 59.281 82.0781 60.2336 83.7265 60.1258C88.5137 59.8131 93.3185 59.691 98.1408 59.7589C102.072 59.8143 102.07 56.4983 98.1408 56.4428Z" fill="#EA8FCB"/>
<path d="M91.0172 59.5946C90.4963 59.5946 78.2598 59.5753 78.2598 57.885C78.2598 56.1949 90.4963 56.1755 91.0172 56.1755C91.538 56.1755 103.774 56.1949 103.774 57.885C103.774 59.5753 91.538 59.5946 91.0172 59.5946ZM78.7382 57.885C79.0732 58.3975 83.5711 59.123 91.0172 59.123C98.4633 59.123 102.961 58.3975 103.296 57.885C102.961 57.3726 98.4633 56.6471 91.0172 56.6471C83.5711 56.6471 79.0732 57.3726 78.7382 57.885Z" fill="#303129"/>
<path d="M129.84 104.029C132.548 103.954 135.92 103.86 138.517 101.962C139.29 101.374 139.926 100.624 140.379 99.7647C140.832 98.905 141.091 97.9569 141.139 96.9864C141.192 95.4882 140.651 94.1803 139.615 93.3048C138.258 92.1587 136.277 91.8899 134.143 92.5171L136.354 76.3544L134.731 76.1321L132.131 95.1334L133.486 94.5111C135.058 93.7901 137.216 93.4232 138.557 94.5564C138.886 94.8525 139.142 95.2208 139.306 95.6323C139.47 96.0437 139.537 96.4875 139.501 96.9289C139.461 97.6511 139.267 98.3563 138.93 98.9965C138.593 99.6366 138.123 100.197 137.55 100.639C135.529 102.115 132.842 102.306 129.794 102.391L129.84 104.029Z" fill="#FF3378"/>
<path d="M125.351 77.7483H116.525V79.387H125.351V77.7483Z" fill="#3F3D56"/>
<path d="M54.1081 71.3814C53.7153 71.3799 53.3357 71.2389 53.0374 70.9834C52.7391 70.7275 52.5416 70.3741 52.4803 69.986L51.9415 66.548C51.8743 66.1155 51.9813 65.6739 52.239 65.3205C52.4968 64.9668 52.8844 64.7298 53.3166 64.6617L81.9722 60.1718C82.4046 60.1044 82.846 60.2114 83.1994 60.4691C83.5531 60.7271 83.7901 61.1145 83.8582 61.5469L84.397 64.9852C84.4642 65.4174 84.3571 65.859 84.0994 66.2124C83.8417 66.5661 83.4541 66.8031 83.0219 66.8712L54.3663 71.3611C54.281 71.3745 54.1947 71.3811 54.1081 71.3814Z" fill="#2F2E41"/>
<path d="M42.2487 31.0896C48.8901 31.0896 54.2738 25.7056 54.2738 19.0644C54.2738 12.4231 48.8901 7.03931 42.2487 7.03931C35.6076 7.03931 30.2236 12.4231 30.2236 19.0644C30.2236 25.7056 35.6076 31.0896 42.2487 31.0896Z" fill="#FF3378"/>
<path d="M49.0578 22.1758C49.4422 22.0414 49.7933 21.8263 50.0875 21.5449C50.2823 21.3442 50.4306 21.1034 50.5226 20.8394C50.6143 20.5753 50.6473 20.2944 50.6192 20.0163C50.603 19.818 50.5409 19.6262 50.4381 19.4559C50.3353 19.2856 50.1946 19.1413 50.0269 19.0344C49.5917 18.7668 49.0166 18.7769 48.4361 19.0461L48.3691 14.3521L47.8975 14.3588L47.9763 19.8771L48.3352 19.6416C48.7516 19.3691 49.3495 19.1715 49.7798 19.4361C49.8862 19.5062 49.9751 19.5999 50.0394 19.7098C50.1038 19.8198 50.1418 19.9432 50.1507 20.0703C50.1705 20.2775 50.1455 20.4865 50.0774 20.6832C50.009 20.8799 49.8994 21.0595 49.7555 21.21C49.2444 21.7172 48.4877 21.8871 47.624 22.0426L47.7077 22.5066C48.1668 22.4369 48.6186 22.3262 49.0578 22.1758Z" fill="#2F2E41"/>
<path d="M53.224 14.0225L50.7129 14.4028L50.7834 14.8689L53.2947 14.4887L53.224 14.0225Z" fill="#2F2E41"/>
<path d="M45.2982 15.2227L42.7871 15.6029L42.8576 16.0691L45.3687 15.6888L45.2982 15.2227Z" fill="#2F2E41"/>
<path d="M50.196 71.1712C49.7636 71.1702 49.3418 71.0377 48.9865 70.7911C48.6311 70.5445 48.3595 70.1955 48.2074 69.7907L39.9165 47.5869C38.9031 44.8638 39.0113 41.8498 40.2173 39.2064C41.4234 36.563 43.6287 34.5057 46.3497 33.4864L53.0913 30.9692C53.3518 30.8711 53.6293 30.8256 53.9078 30.8353C54.186 30.8449 54.4598 30.9095 54.713 31.0253C54.9655 31.1382 55.1933 31.3005 55.3824 31.5023C55.5717 31.7041 55.7189 31.9416 55.8153 32.2009L71.1737 61.1989C71.2732 61.4603 71.3204 61.739 71.3119 62.0187C71.3036 62.2986 71.24 62.5737 71.1247 62.8288C71.0096 63.0837 70.845 63.3136 70.6408 63.5048C70.4364 63.6961 70.1964 63.8448 69.9342 63.9429L50.9378 71.0363C50.7006 71.1254 50.4495 71.171 50.196 71.1712Z" fill="#2F2E41"/>
<path d="M51.0459 31.7326L66.2845 52.1105L55.9731 31.9465C55.888 31.7112 55.7574 31.495 55.5885 31.3101C55.4199 31.1255 55.2165 30.9758 54.9899 30.8697C54.7633 30.7636 54.5181 30.7032 54.2679 30.6919C54.018 30.6806 53.7683 30.7185 53.533 30.8039L51.0459 31.7326Z" fill="#E6E6E6"/>
<path d="M75.1741 47.2085L47.9656 45.4557C47.5367 45.4281 47.1175 45.3164 46.7318 45.1268C46.346 44.937 46.0015 44.6734 45.7179 44.3506C45.4342 44.0278 45.2168 43.6522 45.0782 43.2455C44.9395 42.8387 44.8825 42.4084 44.9101 41.9798C44.9377 41.5509 45.0494 41.1317 45.2392 40.7459C45.4288 40.3602 45.6927 40.0157 46.0154 39.732C46.3382 39.4484 46.7136 39.231 47.1206 39.0924C47.5273 38.9537 47.9574 38.8966 48.3863 38.9242L75.5948 40.6766C75.7956 40.6896 75.9921 40.7419 76.1727 40.8308C76.3533 40.9197 76.5146 41.043 76.6475 41.1944C76.7803 41.3455 76.8821 41.5212 76.947 41.7117C77.0118 41.9022 77.0387 42.1038 77.0257 42.3047L76.802 45.7776C76.776 46.1831 76.5898 46.5618 76.2844 46.8301C75.9791 47.0984 75.5797 47.2345 75.1741 47.2085Z" fill="#FF3378"/>
<path d="M67.9039 48.3322C67.868 48.3322 67.8319 48.331 67.7959 48.3286L45.4537 46.8896C45.2372 46.8757 45.026 46.8194 44.8314 46.7236C44.6369 46.6279 44.4631 46.4949 44.32 46.3322C44.1769 46.1693 44.0673 45.98 43.9975 45.7748C43.9274 45.5697 43.8987 45.3528 43.9126 45.1366L44.2946 39.2044C44.3085 38.9882 44.3651 38.7767 44.4606 38.5822C44.5563 38.3877 44.6893 38.2141 44.8522 38.071C45.0149 37.9279 45.2045 37.8182 45.4096 37.7482C45.6147 37.6784 45.8317 37.6497 46.0479 37.6636L68.39 39.1026C68.8267 39.1313 69.2342 39.3318 69.523 39.6604C69.8121 39.9891 69.9587 40.419 69.9311 40.8556L69.5492 46.7878C69.528 47.1056 69.4157 47.4107 69.2257 47.6663C69.0354 47.9219 68.7756 48.1171 68.4771 48.2287C68.2938 48.2973 68.0996 48.3322 67.9039 48.3322Z" fill="#2F2E41"/>
<path d="M42.1114 11.0679C43.6932 9.70735 45.8655 10.9245 47.6799 10.7114C49.4155 10.5075 50.7859 8.95065 51.1361 7.29666C51.5444 5.36698 50.5431 3.43373 49.0668 2.23061C47.4498 0.912906 45.3053 0.534623 43.2733 0.778409C40.9442 1.05782 38.8144 2.14346 36.9031 3.4566C35.0583 4.68483 33.3618 6.12239 31.8474 7.74064C30.4914 9.23826 29.3425 11.0234 28.9757 13.0387C28.6423 14.8701 28.8968 16.8997 29.9795 18.4512C30.5536 19.2464 31.323 19.8802 32.2133 20.2915C33.1418 20.7474 34.1321 21.0733 35.0317 21.5888C36.3914 22.3681 37.7132 23.9841 37.2872 25.6658C37.1959 26.0331 37.0158 26.3724 36.7623 26.6537C36.4582 26.9916 35.9092 26.545 36.2144 26.2064C36.7503 25.6115 36.7291 24.8181 36.4435 24.1079C36.1038 23.3075 35.5025 22.6462 34.7379 22.2323C33.7964 21.694 32.757 21.3618 31.792 20.8715C30.8684 20.4236 30.0667 19.7592 29.455 18.9348C28.3001 17.3298 27.9547 15.241 28.2166 13.3087C28.5 11.2176 29.5744 9.31748 30.9212 7.72515C32.3868 5.99226 34.1873 4.52542 36.0264 3.20766C38.0002 1.79367 40.1805 0.598257 42.5933 0.165894C44.6847 -0.208897 46.9516 0.0218481 48.7806 1.1616C50.4877 2.22549 51.7967 4.05559 51.9269 6.10054C51.9738 7.03099 51.7717 7.95709 51.3417 8.78352C50.9116 9.60997 50.2691 10.3069 49.4804 10.8026C48.6709 11.287 47.7299 11.5049 46.7901 11.4259C45.7851 11.3615 44.7795 11.0538 43.7682 11.1393C43.3106 11.167 42.8746 11.3432 42.5261 11.6411C42.1804 11.9384 41.7685 11.3627 42.1114 11.0679Z" fill="#2F2E41"/>
</svg>
